<svg width="208" height="24" viewBox="0 0 208 24" fill="none" xmlns="http://www.w3.org/2000/svg">
<g clip-path="url(#clip0_1_15869)">
<path d="M155.151 6.09296H161.354C166.284 6.09296 169.708 9.26542 169.708 14.0572C169.708 18.8489 166.284 22.0048 161.354 22.0048H155.151V6.09296ZM161.354 19.0141C164.464 19.0141 166.284 16.7504 166.284 14.0572C166.284 11.3639 164.58 9.06714 161.354 9.06714H158.492V19.0141H161.354Z" fill="#336cfa"/>
<path d="M171.279 16.2217C171.279 12.9501 173.546 10.1907 177.301 10.1907C181.056 10.1907 183.339 12.9501 183.339 16.2217C183.339 19.4933 181.073 22.2857 177.301 22.2857C173.529 22.2857 171.279 19.5264 171.279 16.2217ZM180.229 16.2217C180.229 14.4372 179.17 12.884 177.301 12.884C175.432 12.884 174.406 14.4372 174.406 16.2217C174.406 18.0062 175.448 19.5759 177.301 19.5759C179.154 19.5759 180.229 18.0227 180.229 16.2217Z" fill="#336cfa"/>
<path d="M190.85 10.1906C193.182 10.1906 194.605 11.2151 195.349 12.2725L193.397 14.1397C192.851 13.33 192.024 12.9004 190.999 12.9004C189.179 12.9004 187.905 14.2388 187.905 16.2381C187.905 18.2374 189.179 19.5923 190.999 19.5923C192.041 19.5923 192.868 19.1132 193.397 18.3531L195.349 20.1872C194.588 21.2612 193.182 22.2856 190.85 22.2856C187.343 22.2856 184.812 19.7741 184.812 16.2216C184.812 12.6691 187.343 10.1906 190.85 10.1906Z" fill="#336cfa"/>
<path d="M197.615 18.3696C198.442 19.1627 200.146 19.9393 201.552 19.9393C202.842 19.9393 203.471 19.4932 203.471 18.7662C203.471 17.9565 202.478 17.6756 201.188 17.4113C199.236 17.0312 196.705 16.5521 196.705 13.8092C196.705 11.876 198.376 10.1906 201.37 10.1906C203.305 10.1906 204.844 10.8515 205.969 11.7603L204.761 13.8257C204.083 13.0822 202.776 12.4873 201.386 12.4873C200.295 12.4873 199.6 12.9004 199.6 13.5614C199.6 14.2719 200.493 14.5362 201.767 14.8006C203.719 15.1806 206.349 15.7094 206.349 18.5679C206.349 20.6663 204.579 22.2691 201.419 22.2691C199.434 22.2691 197.532 21.6082 196.324 20.4846L197.615 18.3696Z" fill="#336cfa"/>
<path d="M24.1995 1.71429H35.68L40.1796 7.82789L47.7726 1.71429H55.4152L43.455 11.0169L51.412 21.5091H39.8157L35.3327 15.2468L27.5577 21.5257H19.915L31.9745 11.4961L24.1995 1.71429Z" fill="#121212"/>
<path d="M55.9451 8.20795H62.1982L58.5257 21.5257H52.2561L55.9451 8.20795Z" fill="#121212"/>
<path d="M74.737 15.9079L81.0397 8.22455H88.2522L84.5798 21.5258H78.0621L80.196 13.8424L73.7941 21.5423H70.5187L67.8884 13.8424L65.8041 21.5258H62.3467L66.0191 8.22455H72.1398L74.737 15.9079Z" fill="#121212"/>
<path d="M123.604 8.20795H117.599L107.426 21.5422H111.727L113.795 18.7002H119.766L120.428 21.5422H126.814L123.621 8.20795H123.604ZM119.27 15.6434H115.929L118.559 12.0579L119.27 15.6434Z" fill="#121212"/>
<path d="M126.912 8.20795L133.463 8.22447L137.168 13.4789L143.074 8.20795H147.292L138.045 16.6183L136.656 21.5257H130.882L132.421 15.9408L126.912 8.20795Z" fill="#121212"/>
<path d="M20.7261 8.22443H5.70549L1.71875 21.5256L18.6417 21.5422L19.4523 18.5184L9.24559 18.5019L10.0893 15.4781L17.2852 15.4947L17.9966 12.9005L10.784 12.917L11.3299 10.9508H19.9982L20.7261 8.22443Z" fill="#121212"/>
<path d="M88.1699 21.5422L91.8258 8.24099L101.586 8.20795C106.615 8.20795 108.832 9.28196 108.236 11.4465C107.806 12.9997 106.019 13.9911 102.876 14.4372C106.416 14.8668 107.922 16.04 107.392 17.9567C106.747 20.3195 103.968 21.4926 99.0384 21.5092L88.1865 21.5422H88.1699ZM94.8366 19.6255H96.6562C99.0383 19.6255 100.461 19.5759 100.908 17.9236C101.42 16.04 100.461 15.8913 97.9962 15.8913H95.9284L94.82 19.6255H94.8366ZM96.4246 14.0076H98.5586C100.378 14.0076 101.503 13.1814 101.95 11.5622C102.363 10.0585 101.602 10.1081 99.6835 10.1081H97.4999L96.4246 14.0076Z" fill="#121212"/>
</g>
<defs>
<clipPath id="clip0_1_15869">
<rect width="204.631" height="20.5714" fill="white" transform="translate(1.71875 1.71429)"/>
</clipPath>
</defs>
</svg>
